<svg xmlns="http://www.w3.org/2000/svg" viewBox="0 0 580 580"><defs><style>.cls-1{fill:#009cfb;}.cls-2{fill:#fff;}.cls-3{opacity:0.7;}</style></defs><title>logo</title><g id="Слой_2" data-name="Слой 2"><g id="Layer"><circle class="cls-1" cx="290" cy="290" r="290"/><path class="cls-2" d="M29.55,299.16q5.08-9,11.92-22.22l12.85-24.66q6-11.43,10-19.78,6.35.1,9,.1,4.64,0,9.08-.1l7,20,15.17,41.31,2.1,5.37-7.31-.1q-2.54,0-8.53.1-1.17-4.35-3.69-11.72t-4.28-12H57.09Q51.38,287.1,46,299.16l-8-.1Q35.76,299.06,29.55,299.16Zm31.88-33.84H80.14l-7.68-22.6-4,8.22Z"/><g class="cls-3"><path class="cls-2" d="M109.9,297.69l-.54-5.37a27,27,0,0,0,4.05,1.35,13.77,13.77,0,0,0,3.05.38,7.23,7.23,0,0,0,2.34-.33,2.8,2.8,0,0,0,1.42-1,2.29,2.29,0,0,0,.46-1.35,2.66,2.66,0,0,0-.06-.59,2.25,2.25,0,0,0-.22-.56,3.61,3.61,0,0,0-.37-.55,5.4,5.4,0,0,0-.57-.59q-.37-.33-1-.84l-1.32-1q-1.9-1.49-2.91-2.34a11.57,11.57,0,0,1-1.68-1.75,6.89,6.89,0,0,1-1-1.88,5.87,5.87,0,0,1,.73-5.41,6.2,6.2,0,0,1,3.16-2.36,14.47,14.47,0,0,1,4.88-.74,41.94,41.94,0,0,1,7.37.76l.32,5.1a14.49,14.49,0,0,0-5.44-1.15,9.76,9.76,0,0,0-2.48.28,2.83,2.83,0,0,0-1.53.85,2,2,0,0,0-.46,1.28,2.38,2.38,0,0,0,.15.82,2.89,2.89,0,0,0,.51.84,6.25,6.25,0,0,0,.84.83q.48.39,2,1.54t2.65,2.08a11.9,11.9,0,0,1,1.87,1.87,7.37,7.37,0,0,1,1.12,2,6.32,6.32,0,0,1,.39,2.17,5.69,5.69,0,0,1-1.12,3.39,7.25,7.25,0,0,1-3.39,2.44,14,14,0,0,1-5.08.88,33.35,33.35,0,0,1-3.56-.23A35.32,35.32,0,0,1,109.9,297.69Z"/><path class="cls-2" d="M129.43,309.36q-.44-3.66-.71-5.27a10.44,10.44,0,0,0,4.42,1.1,5.53,5.53,0,0,0,1.29-.16,5.31,5.31,0,0,0,1.22-.45,3.36,3.36,0,0,0,.74-.56,9.27,9.27,0,0,0,1-1.34,18.7,18.7,0,0,0,1.15-1.93,18.32,18.32,0,0,0,.8-2.05l-5.08-14.84-3.71-10.53q2.56,0,3.69,0,1.29,0,3.39,0,.51,2,1,3.52l2.32,7.67q1.07,3.54,1.54,5.32.29,1.17.68,3.1.73-2.22,1.27-3.61,1-2.54,2.66-6.79l2.37-5.84q.63-1.56,1.29-3.37,2.2,0,3.35,0l3.52,0-9.4,21.06-4.08,9.3a15.31,15.31,0,0,1-1.64,2.81,8,8,0,0,1-1.39,1.46,7.85,7.85,0,0,1-1.56,1,12.06,12.06,0,0,1-2.27.78,13.59,13.59,0,0,1-2.81.29q-.81,0-2.25-.15A20,20,0,0,1,129.43,309.36Z"/><path class="cls-2" d="M159.27,298.15q.56-5.54.93-12.45t.43-12.38q2.25,0,3.59,0,1.59,0,3.37,0l-.27,4.15a18.48,18.48,0,0,1,1.33-1.71,8.25,8.25,0,0,1,1.47-1.25,8.44,8.44,0,0,1,1.9-1,13.55,13.55,0,0,1,2.27-.59,15.24,15.24,0,0,1,2.63-.22,15.58,15.58,0,0,1,4.16.55,7.24,7.24,0,0,1,3.21,1.75,5.83,5.83,0,0,1,1.61,2.61,11.26,11.26,0,0,1,.39,3q0,.66-.07,2.1l-.5,10.67q-.1,2.22-.12,4.74-1.93,0-3.3,0-1.86,0-3.74,0,.2-2.12.49-7.41t.29-7a6.73,6.73,0,0,0-.61-3.1,4,4,0,0,0-1.89-1.78,6.35,6.35,0,0,0-2.77-.61,6.67,6.67,0,0,0-2.73.56,6.18,6.18,0,0,0-2.2,1.64,7.68,7.68,0,0,0-1.51,2.71,25.61,25.61,0,0,0-.83,5.64q-.25,3.49-.39,9.35-1.88,0-3.4,0T159.27,298.15Z"/><path class="cls-2" d="M210.9,292.52q-.12,1-.37,2.27t-.51,3.15a30.55,30.55,0,0,1-6.88.8,19.38,19.38,0,0,1-3.81-.37,10.67,10.67,0,0,1-3.41-1.31,10,10,0,0,1-2.77-2.48,10.49,10.49,0,0,1-1.79-3.72,17,17,0,0,1-.6-4.5,17.8,17.8,0,0,1,1-5.91,11.38,11.38,0,0,1,2.89-4.63,10,10,0,0,1,4.24-2.44,19.39,19.39,0,0,1,5.19-.65,30.28,30.28,0,0,1,3.27.18,31.44,31.44,0,0,1,4,.74l.37,5.35a20,20,0,0,0-6.34-1.25,8.73,8.73,0,0,0-3.13.56,6.32,6.32,0,0,0-2.53,1.77,7.14,7.14,0,0,0-1.51,2.8,11.84,11.84,0,0,0-.45,3.25,10.25,10.25,0,0,0,.72,4,5.22,5.22,0,0,0,2.47,2.62,8.41,8.41,0,0,0,4,.93,15.54,15.54,0,0,0,2.67-.28A20.29,20.29,0,0,0,210.9,292.52Z"/></g><path class="cls-2" d="M215.49,299.16q1.17-16.8,1.9-34.45t.73-27l0-5.22,8.16.1,7.48-.1q-2,25.68-2.53,66.65l-7.18-.1Q222.18,299.06,215.49,299.16Z"/><path class="cls-2" d="M282.68,231.34a48.46,48.46,0,0,1,14,2,31.63,31.63,0,0,1,11.87,6.52,29.71,29.71,0,0,1,7.81,10.52,34.61,34.61,0,0,1,2.64,14,41.81,41.81,0,0,1-2.49,14.38,30.32,30.32,0,0,1-7.71,11.82A32.55,32.55,0,0,1,296,297.94a52.71,52.71,0,0,1-30.76.2,32.33,32.33,0,0,1-12.4-6.88,27,27,0,0,1-7.45-10.77,37.67,37.67,0,0,1-2.25-13.16A39.9,39.9,0,0,1,246,252.48a29.28,29.28,0,0,1,8.25-11.72,37.35,37.35,0,0,1,12.74-7A50.11,50.11,0,0,1,282.68,231.34Zm-.78,10.4a23.85,23.85,0,0,0-12.84,3.39,21.35,21.35,0,0,0-8.23,9.28,29.58,29.58,0,0,0-2.76,12.72,25.87,25.87,0,0,0,2.66,11.69,18,18,0,0,0,8.18,8.15,26.59,26.59,0,0,0,21.14,1.15,20,20,0,0,0,7.59-5.05,22,22,0,0,0,4.81-8.18,31,31,0,0,0,1.61-10,29.91,29.91,0,0,0-1.44-9.28,19.86,19.86,0,0,0-4.47-7.64,18.55,18.55,0,0,0-7.3-4.74A26.25,26.25,0,0,0,281.9,241.74Z"/><g class="cls-3"><path class="cls-2" d="M222.11,337.15l.54-7.13.53-10.62.34-10.45h-1.71l-1.58,0-1.51,0-5.63.17q.2-3.52.22-5.35,7,0,14.72,0l8.76,0,4.69,0q-.24,3.47-.24,5.35-4.42-.22-8.47-.22h-1.88l-.29,4.46-.7,17.16,0,2.88q0,1.78,0,3.7l-3.72,0Z"/><path class="cls-2" d="M265.54,331.61q-.32,1.44-.9,5.18-2.64.56-4.44.76a33.66,33.66,0,0,1-3.64.2,23.63,23.63,0,0,1-5.73-.63,10.37,10.37,0,0,1-4.43-2.33,10.16,10.16,0,0,1-2.81-4.16,14.9,14.9,0,0,1-.9-5.17,16.52,16.52,0,0,1,1-5.82,12,12,0,0,1,2.94-4.61,10.83,10.83,0,0,1,4.31-2.54,17.11,17.11,0,0,1,5.05-.74,17.7,17.7,0,0,1,4.74.62,9,9,0,0,1,3.77,2,9.5,9.5,0,0,1,2.34,3.4,11.52,11.52,0,0,1,.82,4.42,12,12,0,0,1-.24,2.36l-17.9,0c0,.6,0,1.08,0,1.44a7.82,7.82,0,0,0,.56,3,6.19,6.19,0,0,0,1.64,2.32,6.76,6.76,0,0,0,2.56,1.4,10,10,0,0,0,2.93.45,20,20,0,0,0,3.65-.37A38.25,38.25,0,0,0,265.54,331.61Zm-15.77-9.86,11.43,0a14.65,14.65,0,0,0-.07-1.73,6.3,6.3,0,0,0-.33-1.28,4.31,4.31,0,0,0-.7-1.26,4,4,0,0,0-1-.91,4.76,4.76,0,0,0-1.35-.56,6.74,6.74,0,0,0-1.65-.19,6.34,6.34,0,0,0-2,.32,6,6,0,0,0-1.77.92,5.55,5.55,0,0,0-1.31,1.36,6.59,6.59,0,0,0-.74,1.45A15.06,15.06,0,0,0,249.77,321.75Z"/><path class="cls-2" d="M271.42,337.15q.36-4.12.89-14.83t.64-18.49l3.62,0q1.44,0,3.52,0l-.58,8.91-.85,19.87-.1,4.54q-2,0-3.4,0Z"/><path class="cls-2" d="M306.82,331.61q-.32,1.44-.9,5.18-2.64.56-4.44.76a33.66,33.66,0,0,1-3.64.2,23.64,23.64,0,0,1-5.73-.63,10.37,10.37,0,0,1-4.43-2.33,10.15,10.15,0,0,1-2.81-4.16,14.9,14.9,0,0,1-.9-5.17,16.52,16.52,0,0,1,1-5.82A12,12,0,0,1,288,315a10.83,10.83,0,0,1,4.31-2.54,17.11,17.11,0,0,1,5.05-.74,17.7,17.7,0,0,1,4.74.62,9,9,0,0,1,3.77,2,9.49,9.49,0,0,1,2.34,3.4,11.52,11.52,0,0,1,.82,4.42,12.08,12.08,0,0,1-.24,2.36l-17.9,0c0,.6,0,1.08,0,1.44a7.81,7.81,0,0,0,.56,3,6.2,6.2,0,0,0,1.64,2.32,6.76,6.76,0,0,0,2.56,1.4,10,10,0,0,0,2.93.45,20,20,0,0,0,3.65-.37A38.27,38.27,0,0,0,306.82,331.61Zm-15.77-9.86,11.43,0a14.65,14.65,0,0,0-.07-1.73,6.24,6.24,0,0,0-.33-1.28,4.29,4.29,0,0,0-.7-1.26,4,4,0,0,0-1-.91A4.75,4.75,0,0,0,299,316a6.73,6.73,0,0,0-1.65-.19,6.34,6.34,0,0,0-2,.32,6,6,0,0,0-1.77.92,5.54,5.54,0,0,0-1.31,1.36,6.61,6.61,0,0,0-.75,1.45A15.15,15.15,0,0,0,291.05,321.75Z"/></g><path class="cls-2" d="M317,335.46q11,3.61,19,3.61a21.72,21.72,0,0,0,5.81-.76,13.12,13.12,0,0,0,4.59-2.19,9.37,9.37,0,0,0,2.88-3.9,20.36,20.36,0,0,0,1.37-5.7q.34-3.24.54-9.82a31.07,31.07,0,0,1-3.42,4,16.89,16.89,0,0,1-3.64,2.59,21.26,21.26,0,0,1-5,1.86,25.42,25.42,0,0,1-14.11-.63,18.68,18.68,0,0,1-6.86-4.22,18.47,18.47,0,0,1-4.57-7.25,26.83,26.83,0,0,1-1.56-9.11,32.6,32.6,0,0,1,2.56-12.84,24.71,24.71,0,0,1,7.52-10,28.67,28.67,0,0,1,10.6-5.37,49.81,49.81,0,0,1,12.52-1.46q3.81,0,8.64.46t12.79,1.88l-1.12,15.47-1,19.37L364.24,329a36.09,36.09,0,0,1-.73,5.73,17.12,17.12,0,0,1-1.86,5,15.24,15.24,0,0,1-3.22,3.93,16.44,16.44,0,0,1-4.42,2.76,29.87,29.87,0,0,1-6.1,1.73,42.29,42.29,0,0,1-7.79.68,99.35,99.35,0,0,1-10.11-.59,94.71,94.71,0,0,1-12.35-2.2Zm35.65-50.2a39,39,0,0,0-7.86-.88,21.3,21.3,0,0,0-10.5,2.32,15.6,15.6,0,0,0-6.4,6.77,20.66,20.66,0,0,0-2.25,9.44,17,17,0,0,0,1.37,6.82,9.71,9.71,0,0,0,4.27,4.77,13,13,0,0,0,6.42,1.61,13.65,13.65,0,0,0,4.66-.78,11.57,11.57,0,0,0,3.93-2.4,16,16,0,0,0,3.1-4,17.55,17.55,0,0,0,1.9-5.4,64.84,64.84,0,0,0,.86-7.53Q352.48,291.48,352.68,285.27Z"/><path class="cls-2" d="M376.5,325.16,377.92,302l.39-13.48q.1-4.15.1-8.35,0-.73-.1-4.64,4.54.1,6.69.1,2.49,0,6.59-.1l-.24,6.88a29.43,29.43,0,0,1,3.17-3.93,13.93,13.93,0,0,1,6.59-3.64,17.06,17.06,0,0,1,8.11,0q0,4.54.44,11.52a20.16,20.16,0,0,0-5.23-.78,13.61,13.61,0,0,0-5,.85,11.39,11.39,0,0,0-3.91,2.59,13.92,13.92,0,0,0-2.86,4.27,19.34,19.34,0,0,0-1.37,5.32q-.38,2.54-.64,8.69t-.26,12.11q0,2.3.15,5.76-3.72-.1-6.8-.1T376.5,325.16Z"/><path class="cls-2" d="M419.13,286.39q.68-3.52.85-4.93t.61-4.3a113.48,113.48,0,0,1,11.72-2.2,79.2,79.2,0,0,1,9.81-.63,36.86,36.86,0,0,1,9.86,1.25,14.69,14.69,0,0,1,7,4q2.54,2.73,2.54,7.86,0,2.78-.78,14.18t-.92,23.56q-3.71-.1-6.84-.1t-7,.1q.64-5.91,1-13.67l.64-12.16a30.59,30.59,0,0,1-2.83,1.71,17.43,17.43,0,0,1-2.2.9q-1.22.41-4.3,1.27t-4.94,1.49a22,22,0,0,0-3.35,1.44,11.2,11.2,0,0,0-2.52,1.81,6.48,6.48,0,0,0-1.49,2.1,6,6,0,0,0-.46,2.37,5.48,5.48,0,0,0,1.2,3.54,6.24,6.24,0,0,0,3,2.08,13.81,13.81,0,0,0,4.25.59,23.62,23.62,0,0,0,3.3-.24,28.05,28.05,0,0,0,4.66-1.22,84.86,84.86,0,0,0-2.39,8.3q-3.47.59-5.52.73t-3.81.15a26.34,26.34,0,0,1-10.11-1.66,11.24,11.24,0,0,1-5.83-5.27,15.63,15.63,0,0,1-1.88-7.28,12.45,12.45,0,0,1,2.88-7.91,18.83,18.83,0,0,1,3.66-3.3,27.06,27.06,0,0,1,6.5-3.08,98,98,0,0,1,11.24-3q1.86-.39,3.86-1a23.58,23.58,0,0,0,3.2-1.1,7.12,7.12,0,0,0,2.08-1.39,5.84,5.84,0,0,0,1.29-1.78,4.61,4.61,0,0,0,.42-1.9,4.52,4.52,0,0,0-1.25-3.22,6.6,6.6,0,0,0-3.22-1.83,17.44,17.44,0,0,0-4.37-.51Q429.88,282.14,419.13,286.39Z"/><path class="cls-2" d="M472.16,325.16q.68-8.3,1.44-24.8t.76-24.85q4.15.1,6.74.1,3,0,6.45-.1l-.38,7.86a35.92,35.92,0,0,1,2.85-3.74,14.24,14.24,0,0,1,3.34-2.66,18.24,18.24,0,0,1,4.81-1.93,22.8,22.8,0,0,1,5.69-.71,21.37,21.37,0,0,1,4.25.42,17.63,17.63,0,0,1,3.73,1.17,12.87,12.87,0,0,1,2.88,1.73,10.63,10.63,0,0,1,2,2.17,20,20,0,0,1,1.81,3.54,33.41,33.41,0,0,1,2-2.86,16.06,16.06,0,0,1,5.79-4.42,19.67,19.67,0,0,1,4.17-1.29,24.47,24.47,0,0,1,4.81-.46,22.89,22.89,0,0,1,8,1.39,12.3,12.3,0,0,1,5.91,4.39,12.47,12.47,0,0,1,2.15,7.45q0,2.34-.34,6.88t-.82,14.82q-.48,10.28-.53,15.89-3.57-.1-6.31-.1-3.23,0-7.58.1.44-6.3.83-13.18l.59-11.18q.25-4.25.25-7.18a10.24,10.24,0,0,0-1.1-5.28,6.31,6.31,0,0,0-2.78-2.55,9.09,9.09,0,0,0-3.79-.76,9.28,9.28,0,0,0-4,.83,9.69,9.69,0,0,0-3.32,2.7,13.48,13.48,0,0,0-2.37,4.34,31.26,31.26,0,0,0-1.21,6.94q-.39,4.47-.63,11.74l-.34,13.57q-4.06-.1-6.75-.1t-7.19.1q.34-3.76,1-15.38t.63-15.67a16.62,16.62,0,0,0-.34-3.64,7.2,7.2,0,0,0-1.39-2.83,6.49,6.49,0,0,0-2.46-2,7.92,7.92,0,0,0-3.27-.63,8.88,8.88,0,0,0-6,2.25,12.93,12.93,0,0,0-3.78,6q-1.2,3.76-1.73,14.62t-.53,17.26q-4.48-.1-6.77-.1Q476.73,325.06,472.16,325.16Z"/></g></g></svg>